<svg xmlns="http://www.w3.org/2000/svg" viewBox="0 0 858 473.05"><defs><style>.cls-1{isolation:isolate;}.cls-2{fill:#e7f3ff;}.cls-2,.cls-3{opacity:0.8;}.cls-24,.cls-3,.cls-4{fill:#fff;}.cls-5{fill:#efd1bd;}.cls-6{fill:#d9efff;}.cls-7{fill:#e2d2bf;}.cls-8{fill:#79b285;}.cls-9{fill:#edb66e;}.cls-10,.cls-11{fill:#ff9631;}.cls-11,.cls-15,.cls-21,.cls-22,.cls-24,.cls-30,.cls-35,.cls-50{opacity:0.3;}.cls-11{mix-blend-mode:multiply;}.cls-12{fill:#0c0403;}.cls-13{fill:#874f22;}.cls-14{fill:#40607e;}.cls-15{fill:#191411;}.cls-16{fill:#fcca97;}.cls-17{fill:#efc69a;}.cls-18{fill:#0f0a02;}.cls-19{fill:#c9994b;}.cls-20,.cls-21,.cls-35,.cls-50{fill:none;stroke:#000;stroke-miterlimit:10;}.cls-20{opacity:0.44;}.cls-22{fill:#f4bb67;}.cls-23{fill:#dd3c48;}.cls-25{fill:#665642;}.cls-26{fill:#eaa968;}.cls-27{fill:#020201;}.cls-28{fill:#070504;}.cls-29{fill:#ef852e;}.cls-30{fill:#152430;}.cls-31{fill:#ffd097;}.cls-32{fill:#062136;}.cls-33{fill:#ce8446;}.cls-34{fill:#e28130;}.cls-35{stroke-width:2px;}.cls-36{fill:#eaba65;}.cls-37{fill:#f28830;}.cls-38{fill:#4c350c;}.cls-39{fill:#cc9a62;}.cls-40{fill:#bc9153;}.cls-41{fill:#a9a9a9;}.cls-42{fill:#c6c6c6;}.cls-43{fill:#d8d8d8;}.cls-44{fill:#ea8532;opacity:0.5;}.cls-45{fill:#050402;}.cls-46{fill:#cad2d9;}.cls-47{fill:#e2e8ed;}.cls-48{fill:#c6cbce;}.cls-49{fill:#0f0b08;}.cls-50{stroke-width:0.75px;}.cls-51{fill:#38556d;}</style></defs><g class="cls-1"><g id="Layer_1" data-name="Layer 1"><path class="cls-2" d="M76.43,473.05C30.23,450.92-.08,409.11,0,365c.06-35.71,20.05-61.29,26.49-69.29,36.05-44.81,90.68-47.58,99.87-47.9a164.22,164.22,0,0,1-16.31-76.42c2-58.46,35.63-96.73,45.86-108,11.18-12.34,38.94-39.48,83.56-52,52-14.56,95.1-.22,117.18,7.14a236.94,236.94,0,0,1,75.41,41.78,162.85,162.85,0,0,1,38.72-34.65C520-5.71,570.54-.09,580.83,1.25c41.51,5.44,69.11,25.43,81.52,34.65,41.6,30.91,59.43,70.58,66.24,88.65A305.2,305.2,0,0,1,858,143.91V473.05Z"/><path class="cls-3" d="M226,147.63c22.59.35,40.06.65,52.46,1.12a247.73,247.73,0,0,0,36.14-.84h0a5.09,5.09,0,0,0-.73-4.46,4.87,4.87,0,0,0-5-1.67,6.06,6.06,0,0,0-1.68-4.47c-2-1.9-4.93-1.34-6.13-1.11a9.48,9.48,0,0,0-4.19,2,8.49,8.49,0,0,0-5.3-7,7.94,7.94,0,0,0-5,0,9.91,9.91,0,0,0-2.79-6.13c-4.14-4-10.5-1.94-11.16-1.68a15.37,15.37,0,0,0-5.58,3.91l-2,4.74a4.48,4.48,0,0,0-2.23-2.23,4.84,4.84,0,0,0-4.46.56,6.44,6.44,0,0,0-.84-3.07c-1.16-2-3.18-2.63-5-3.35a13.15,13.15,0,0,0-8.37-.56,12.46,12.46,0,0,0-5,2.79c-1.16,1.06-2.62,2.39-2.79,4.47a5.51,5.51,0,0,0,.55,2.79,5.8,5.8,0,0,0-7,7.53l-3.63,2.51a6.31,6.31,0,0,0-3.35-1.12,6.45,6.45,0,0,0-4.46,1.68h0c-.67,1.07.23,2.94.84,3.62C220.46,148.93,223.16,148.85,226,147.63Z"/><path class="cls-3" d="M579,127.63c22.59.35,40.06.65,52.46,1.12a247.73,247.73,0,0,0,36.14-.84h0a5.09,5.09,0,0,0-.73-4.46,4.87,4.87,0,0,0-5-1.67,6.06,6.06,0,0,0-1.68-4.47c-2-1.9-4.93-1.34-6.13-1.11a9.48,9.48,0,0,0-4.19,2,8.49,8.49,0,0,0-5.3-7,7.94,7.94,0,0,0-5,0,9.91,9.91,0,0,0-2.79-6.13c-4.14-4-10.5-1.94-11.16-1.68a15.37,15.37,0,0,0-5.58,3.91l-2,4.74a4.48,4.48,0,0,0-2.23-2.23,4.84,4.84,0,0,0-4.46.56,6.44,6.44,0,0,0-.84-3.07c-1.16-2-3.18-2.63-5-3.35a13.15,13.15,0,0,0-8.37-.56,12.46,12.46,0,0,0-5,2.79c-1.16,1.06-2.62,2.39-2.79,4.47a5.51,5.51,0,0,0,.55,2.79,5.8,5.8,0,0,0-7,7.53l-3.63,2.51a6.31,6.31,0,0,0-3.35-1.12,6.45,6.45,0,0,0-4.46,1.68h0c-.67,1.07.23,2.94.84,3.62C573.46,128.93,576.16,128.85,579,127.63Z"/><path class="cls-4" d="M373.32,216.05H519.46a5,5,0,0,0,0-3.29c-1.1-2.9-5.62-4.65-11.14-3.71a21.06,21.06,0,0,0-27-4,23.4,23.4,0,0,0-20-8,23.82,23.82,0,0,0-7-6c-4.81-2.68-9.25-2.85-15-3-6.87-.17-11.08-.28-16,2a26.09,26.09,0,0,0-11,10l-7,1a13.79,13.79,0,0,0-8,4,13.36,13.36,0,0,0-3,5,21.22,21.22,0,0,0-21,6Z"/><polygon class="cls-5" points="751.53 316.77 751.63 471.94 857.99 471.94 857.99 298.64 847.34 298.64 847.34 285.05 765.73 285.05 765.73 297.51 759.34 297.51 759.34 316.77 751.53 316.77"/><rect class="cls-6" x="768.33" y="318.3" width="10.41" height="14.58"/><rect class="cls-6" x="782.55" y="318.3" width="10.41" height="14.58"/><rect class="cls-6" x="796.78" y="318.3" width="10.41" height="14.58"/><rect class="cls-6" x="768.33" y="336.35" width="10.41" height="14.58"/><rect class="cls-6" x="782.55" y="336.35" width="10.41" height="14.58"/><rect class="cls-6" x="768.33" y="354.39" width="10.41" height="14.58"/><rect class="cls-6" x="782.55" y="354.39" width="10.41" height="14.58"/><rect class="cls-6" x="796.78" y="336.35" width="10.41" height="14.58"/><rect class="cls-6" x="810.66" y="318.3" width="10.41" height="14.58"/><path class="cls-7" d="M746,397.74V359c-3-.5-16.11,0-16.11,0v-6.5c-45.35-7-80.11,3-80.11,3v114H746Z"/><path class="cls-8" d="M76.43,473.05H858c-8.43-7.35-21.69-16.73-39.5-20.47-27.61-5.79-42.75,6.87-72.64,12.47-40.16,7.53-41.73-9.89-104.86-12-5.1-.17-5.13-.11-97,5.7-44.24,2.8-66.72,4.18-84,3.3-41.17-2.1-40.63-8.1-75-9-41.68-1.08-43.69,7.72-95,9-14.51.36-35.67-.76-78-3-41-2.17-49.36-3.44-66.32-2.16A234.27,234.27,0,0,0,76.43,473.05Z"/><path class="cls-9" d="M365.29,335.26c.74-.23,1,.05,4.39,1.25,2.91,1.05,3.45,1.12,4.39,1.88.43.35,2.24,1.82,1.89,3.14-.08.27-.29.74-1.26,1.26-3,1.6-6.64.32-7.53,0-2.21-.81-4-1.46-4.39-3.14A4,4,0,0,1,365.29,335.26Z"/><path class="cls-10" d="M323.46,311.62A51.59,51.59,0,0,0,364,341.53l3-6.27-18.69-8.79-13.6-15.89Z"/><path class="cls-10" d="M287.94,312.59l.33.49Z"/><path class="cls-10" d="M287.53,312l.3.44Z"/><path class="cls-10" d="M290.4,317c.1.21.19.41.27.62C290.59,317.43,290.5,317.23,290.4,317Z"/><path class="cls-10" d="M290.75,317.83c.12.27.23.55.34.83C291,318.38,290.87,318.1,290.75,317.83Z"/><path class="cls-10" d="M289.58,315.34l.38.73Z"/><path class="cls-10" d="M290,316.14c.11.23.22.45.32.68C290.21,316.59,290.1,316.37,290,316.14Z"/><path class="cls-10" d="M291.1,318.7l.3.8Z"/><path class="cls-10" d="M289.2,314.64c.11.19.21.37.31.57C289.41,315,289.31,314.83,289.2,314.64Z"/><path class="cls-10" d="M288.33,313.18l.39.64Z"/><path class="cls-10" d="M291.48,319.75c.08.21.15.43.22.66C291.63,320.18,291.56,320,291.48,319.75Z"/><path class="cls-10" d="M288.78,313.91l.33.56Z"/><path class="cls-10" d="M291.79,320.66l.27.92Z"/><path class="cls-10" d="M286.68,310.85l.29.39Z"/><path class="cls-10" d="M287.06,311.35c.13.16.25.34.38.52C287.31,311.69,287.19,311.51,287.06,311.35Z"/><path class="cls-10" d="M330.36,292.17c-.11.28-4.37,11.32-1.54,43.34,9-30.73,1.68-43.1,1.54-43.34Z"/><path class="cls-10" d="M330.36,292.17c-.14.18-6.82,9.2-3.59,49.8.76-2.23,1.44-4.39,2.05-6.46C326,303.49,330.25,292.45,330.36,292.17Z"/><path class="cls-11" d="M330.36,292.17c-.14.18-6.82,9.2-3.59,49.8.76-2.23,1.44-4.39,2.05-6.46C326,303.49,330.25,292.45,330.36,292.17Z"/><path class="cls-10" d="M284.93,308.85l.2.22.15.15.19.21.2.22.17.19.32.38.13.16a3.76,3.76,0,0,1,.25.31l.14.16.29.39.09.11c.13.16.25.34.38.52l.09.12.3.44.11.16.33.49.06.1.39.64.06.09.33.56.09.17c.11.19.21.37.31.57a.83.83,0,0,1,.07.13l.38.73,0,.07c.11.23.22.45.32.68l.09.2c.1.21.19.41.27.62s.06.13.08.19c.12.27.23.55.34.83v0l.3.8a1.83,1.83,0,0,1,.08.25c.08.21.15.43.22.66l.09.25.27.92h0c.24,1.37.45,2.82.62,4.34.25,2.18.39,4.26.45,6.19a84.4,84.4,0,0,0,.63,11.29c.2,1.63.44,3.19.71,4.68h0c.66.46,1.4.94,2.21,1.43l.7.42.41.24c.6.35,1.23.69,1.89,1l.46.23c.32.17.66.33,1,.49l.43.2.14.06.48.22.53.23,1.11.45c.37.15.75.29,1.14.43s.78.27,1.17.4l.69.22,1.14.33.49.13.2,0,.58.14.06,0,.58.13.65.13.62.13c.47.08.93.16,1.41.22s.84.12,1.27.16l.31,0,.92.08.28,0,.6,0H316c.47,0,.93,0,1.4,0a33.08,33.08,0,0,0,5.44-.45c.7-.11,1.4-.26,2.11-.42l.71-.17c.95-.25,1.9-.54,2.87-.88-.7-5.14-1.2-9.38-1.53-12.32-3.52-31.62-1.69-41.86,4-49.36h0a44.35,44.35,0,0,0-8.54-2.55h0a20.1,20.1,0,0,1-6.1,4.85c-2.25,1.11-5.43,1.44-15.69,0-2.88-.4-6.74-1-11.29-1.88a29.29,29.29,0,0,0-4.4,6.27l-3.11,7.37C283.58,307.65,284.8,308.72,284.93,308.85Z"/><path class="cls-11" d="M291.82,323c0-.11,0-.22.05-.33C291.86,322.75,291.84,322.86,291.82,323Z"/><path class="cls-11" d="M286.68,310.85l0,0,.38.49-.07-.08Z"/><path class="cls-11" d="M291.1,318.7v0c-.11-.28-.22-.56-.34-.83v0c.23.56.46,1.15.68,1.76l0-.05Z"/><path class="cls-11" d="M291.66,324.11v0Z"/><path class="cls-11" d="M290.4,317l0,0,.33.76,0-.09C290.59,317.43,290.5,317.23,290.4,317Z"/><path class="cls-11" d="M289.2,314.64l0,0c.13.22.25.45.37.69l0-.08C289.41,315,289.31,314.83,289.2,314.64Z"/><path class="cls-11" d="M290,316.14l0-.07-.38-.73v0c.26.5.51,1,.76,1.56l0-.05C290.21,316.59,290.1,316.37,290,316.14Z"/><path class="cls-11" d="M287.06,311.35l0,0,.42.56,0,0C287.31,311.69,287.19,311.51,287.06,311.35Z"/><path class="cls-11" d="M288.78,313.91l-.06-.09-.39-.64v0q.4.64.81,1.35l0,0Z"/><path class="cls-11" d="M287.94,312.59l0,0,.4.6a.35.35,0,0,1-.05-.08Z"/><path class="cls-11" d="M287.53,312l0-.06c.12.18.25.35.37.54l0,0Z"/><path class="cls-11" d="M291.48,319.75l0-.08.27.82,0-.08C291.63,320.18,291.56,320,291.48,319.75Z"/><path class="cls-11" d="M292.06,321.58l-.27-.92,0-.05c.1.32.2.64.29,1h0l0,.17,0-.16Z"/><path class="cls-10" d="M287.44,311.87l0,0,0,0,0,.06Z"/><path class="cls-11" d="M287.44,311.87l0,0,0,0,0,.06Z"/><path class="cls-10" d="M289.51,315.21l0,.08,0,0v0A.83.83,0,0,0,289.51,315.21Z"/><path class="cls-11" d="M289.51,315.21l0,.08,0,0v0A.83.83,0,0,0,289.51,315.21Z"/><path class="cls-10" d="M290.67,317.64l0,.09,0,.06v0C290.73,317.77,290.7,317.71,290.67,317.64Z"/><path class="cls-11" d="M290.67,317.64l0,.09,0,.06v0C290.73,317.77,290.7,317.71,290.67,317.64Z"/><path class="cls-10" d="M290,316.07l0,.07Z"/><path class="cls-11" d="M290,316.07l0,.07Z"/><path class="cls-10" d="M290.31,316.82l0,.05.05.1,0,0Z"/><path class="cls-11" d="M290.31,316.82l0,.05.05.1,0,0Z"/><path class="cls-10" d="M291.4,319.5l0,.05a.56.56,0,0,0,0,.12l0,.08A1.83,1.83,0,0,0,291.4,319.5Z"/><path class="cls-11" d="M291.4,319.5l0,.05a.56.56,0,0,0,0,.12l0,.08A1.83,1.83,0,0,0,291.4,319.5Z"/><path class="cls-10" d="M291.09,318.66v0Z"/><path class="cls-11" d="M291.09,318.66v0Z"/><path class="cls-10" d="M289.11,314.47l0,0,.05.09,0,0Z"/><path class="cls-11" d="M289.11,314.47l0,0,.05.09,0,0Z"/><path class="cls-10" d="M291.7,320.41l0,.08s0,.08,0,.12l0,.05Z"/><path class="cls-11" d="M291.7,320.41l0,.08s0,.08,0,.12l0,.05Z"/><path class="cls-10" d="M288.72,313.82l.06.09Z"/><path class="cls-11" d="M288.72,313.82l.06.09Z"/><path class="cls-10" d="M288.27,313.08a.35.35,0,0,0,.05.08h0v0Z"/><path class="cls-11" d="M288.27,313.08a.35.35,0,0,0,.05.08h0v0Z"/><path class="cls-10" d="M287.83,312.43l0,0,.06.09,0,0Z"/><path class="cls-11" d="M287.83,312.43l0,0,.06.09,0,0Z"/><path class="cls-10" d="M287,311.24l.07.08h0l0,0Z"/><path class="cls-11" d="M287,311.24l.07.08h0l0,0Z"/><path class="cls-10" d="M286.54,310.69l0,0,.09.11,0,0Z"/><path class="cls-11" d="M286.54,310.69l0,0,.09.11,0,0Z"/><path class="cls-12" d="M284.41,457.26a10,10,0,0,0-.9.93,18.9,18.9,0,0,0-1.85,2.63c-.24.41-.47.83-.68,1.26a12,12,0,0,0-1.14,3.41,6.64,6.64,0,0,0-.07,1.46,2.74,2.74,0,0,0,.62,1,4.32,4.32,0,0,0,3.83-.13,12.3,12.3,0,0,0,3-1.95c.36-.31.71-.63,1.05-1a19,19,0,0,0,2.09-2.45,7.67,7.67,0,0,0,1.52-4.26c0-.15,0-.31,0-.46a3.42,3.42,0,0,0-1.09-1.5,4.66,4.66,0,0,0-.47-.3l-.39,1.76C288.37,464.17,284.5,463.71,284.41,457.26Z"/><path class="cls-12" d="M325.6,460.45a8.19,8.19,0,0,1,.8,1,19.9,19.9,0,0,1,1.57,2.81q.3.66.54,1.32a12.17,12.17,0,0,1,.78,3.51,6.39,6.39,0,0,1-.09,1.47,2.68,2.68,0,0,1-.71.88,4.32,4.32,0,0,1-3.8-.52,12.1,12.1,0,0,1-2.79-2.26,14.1,14.1,0,0,1-.95-1.08,19.15,19.15,0,0,1-1.83-2.65,7.66,7.66,0,0,1-1.05-4.39,3.78,3.78,0,0,1,.06-.47,3.42,3.42,0,0,1,1.24-1.37,3.33,3.33,0,0,1,.5-.25l.2,1.79C320.94,466.91,324.84,466.86,325.6,460.45Z"/><path class="cls-9" d="M293,446.49a28.59,28.59,0,0,0-7.12-1.6l-1,10.79c0,.16,0,.3,0,.44-.63,8.86,3.18,10.2,5.45,1.54l.57-2.34L293.61,444h0Z"/><path class="cls-9" d="M319.11,451.41h0l.82,7.71.2,1.92c.82,6.71,4.84,6.78,5.57,0l.18-2.06.35-3.89a67.57,67.57,0,0,1-6.9-1.58Z"/><path class="cls-13" d="M288.89,291.85c-.5-2.21,4.48-4,5-9.51.25-2.46-.68-3.12-1.46-6.67a31.73,31.73,0,0,1,1.42-17.74c1.1-3.18,2.51-7.1,5.5-7.77,2.2-.49,4.58.91,5.2,0s-1.3-2.39-.76-3.44,3.54-.87,6.4-.4c6.92,1.14,10.37,1.75,12.87,3.69,4.15,3.24,4.87,8.33,5.81,14.94,1.36,9.66-.14,20,.62,25.73,0,.19.59,4.36.59,4.36h0a33.06,33.06,0,0,1,3.33,6.49c1.72,4.39,9.07,23.2.57,30.82-3.11,2.79-9.21,4.83-12.42,2.52-7.16-5.17,8.28-26-.06-35.72C313.71,290.07,290,296.62,288.89,291.85Z"/><path class="cls-9" d="M314.65,279.78c2.63-1.45,3.45-4.81,4.21-7.9.81-3.32,1.87-7.69-.51-11.41-3.14-4.9-11-6.72-15.43-3.77s-5.07,10.94-3.75,15.87c.65,2.42,1.9,4.68,1.19,7.84a14.47,14.47,0,0,1-2.29,4.85,20.7,20.7,0,0,1-2.75,2.92c-1,.86-1.28,1-2,1.73-1.13,1.13-2.2,2.21-2.13,3,.11,1.19,3.08,2.49,22.17,3.69,4.25.26,10.11.58,10.3-.41.22-1.19-8.05-2.28-12.1-9.09a15.15,15.15,0,0,1-.84-1.63c-.11-.26-.17-.38-.2-.48-.38-1.19.78-2.66,1.07-3A8.76,8.76,0,0,1,314.65,279.78Z"/><path class="cls-13" d="M317.29,282.63c-1.22,1.16-.52,3-1.61,9.45-1,6-1.88,5.89-2.14,9.46-.47,6.19,2.08,7.23,2.14,13.5.08,7.34-3.37,9.15-2.14,12.84,1.6,4.81,9.28,7.11,15,4.05,4.73-2.52,6.67-7.89,7-8.78,1.71-4.93.89-9.26-.54-16.89-1.47-7.84-2.53-13.48-6.44-18.23C325.11,283.83,319.57,280.47,317.29,282.63Z"/><path class="cls-14" d="M336.79,395c.13-5.77-.25-10.58-1-20.19A64.17,64.17,0,0,0,333.29,361c-.44-1.45-.75-2.29-1.26-3.76-1.29-3.73-3.07-9.17-5-16.32a24.16,24.16,0,0,1-6,2.21,40.35,40.35,0,0,1-4.56.49h0a42.47,42.47,0,0,1-16.66-2.76h0a22.52,22.52,0,0,1-4.91-2.23,13.28,13.28,0,0,1-1.78-1.46c-.51,2.48-1.26,6.16-2.18,10.62-2.66,12.8-5.88,23.33-7.38,34.5-4.55,33.79-17,38.18-21.19,59.46a12.69,12.69,0,0,0,5.4,5.52c2.3,1.13,4.78,1.09,9.66,1,4.56-.12,5.75-.54,9.42-.63a52.54,52.54,0,0,1,9.41.63l5.64,1.88c6.31,3.34,11,5.66,12.07,6.15,1.61.72,3.09,1.25,3.09,1.25h0a44.67,44.67,0,0,0,5.81,1.68,62.86,62.86,0,0,0,10.47,1.32c5.46.25,10.57-.69,15-4.71C338.64,420.34,336.6,403.62,336.79,395Z"/><path class="cls-15" d="M299.41,349.69c-.49-.09-1.84,5.15-2.51,8.16-.76,3.34-2.67,12.74-1.89,27,.23,4.16.8,10.68,1.26,10.66s.25-9.17,1.25-23.21C298.5,358.56,300,349.8,299.41,349.69Z"/><path class="cls-15" d="M306.31,350.32c-.21,0-1.32,4.84-1.77,10.66-.63,8.19.3,15.07.51,15.06s.05-1.24.22-6.7c.09-2.77.19-5.4.27-7.1C305.91,354.37,306.49,350.34,306.31,350.32Z"/><path class="cls-10" d="M284.65,300.74c-.8,1.61-1.73,3.29-2.81,5a63.53,63.53,0,0,1-6.82,9A84.23,84.23,0,0,1,252.88,310l-1.38,8.31c4.28,1.3,7.77,2.18,10.05,2.73,7.38,1.77,15.37,3.19,15.37,3.19h0c1.32-.08,3.78-.55,7.42-4.06a32.94,32.94,0,0,0,5.64-7.53,52.29,52.29,0,0,0,2.59-4.9Z"/><path class="cls-16" d="M207.48,252.75c.23.78.44,1.61.63,2.51a32,32,0,0,1,.63,5,14.82,14.82,0,0,0,4.39,8.15c1.4,1.39,2.83,2.81,5,3.14a6.32,6.32,0,0,0,1.91,0l1.23,3.14-6,4.7,3.13,2.51q4.71,3.45,9.41,6.91l9.1-9.1,2.51-3.77-3.13-1.88q-1.26-1.86-2.51-3.76c-.82-1.25-1.63-2.49-2.41-3.71l-1.67-5.39-3.77-4.4,1.26-3.13-1.89-3.14h-5l-5-3.14-8.79,3.77C206.85,251.7,207.17,252.22,207.48,252.75Z"/><path class="cls-16" d="M252.36,451.12c0,1.7-.05,3.12-.12,4.17a22.12,22.12,0,0,1-.59,4.58,13.36,13.36,0,0,1-1.19,2.89l5.7,3.64,5-2.19-.53-13.81Z"/><path class="cls-16" d="M221.91,449.77a11.52,11.52,0,0,1,.32,3.45,11.67,11.67,0,0,1-.63,3.14l-4.39,2.51,6,3.45,6.59-.32q.15-5.94.31-11.9Z"/><path class="cls-10" d="M212.5,348.75V364.3c.06,3.09.15,7.58.32,13,.34,11.15.69,22.51,1.88,36.39.42,5,.44,3.59,1.57,16l1.88,20.71A13.16,13.16,0,0,0,232.27,452L231,428.12q.15-38.42,2.83-38.59,2.06-.13,5.64,22.59l4.39,22.59,3.93,17.57a16.3,16.3,0,0,0,14,0q-.94-13-1.88-26-1.11-12.39-2.2-24.79l-2.51-31.37-2.51-20.7Z"/><path class="cls-17" d="M148.19,367.26A73.6,73.6,0,0,0,164.5,371a31.55,31.55,0,0,0,6.9-3.13,32,32,0,0,0,6.28-5l3,3.31c-1.64,1.77-3.48,3.61-5.54,5.47-2.39,2.16-4.71,4-6.9,5.65a64.56,64.56,0,0,1-20.08-2.7l-2.51-2.32Z"/><path class="cls-17" d="M131.33,428.75l-1,30.74-3.91,3.77a4.65,4.65,0,0,0,2.14,1.88c1,.4,1.79.11,3.76,0a26,26,0,0,1,2.68,0v-5.65c.95-3.38,1.85-7.15,2.59-11.29.43-2.4.77-4.71,1-6.9q.19-6.27.41-12.55Z"/><path class="cls-17" d="M147.51,430l10.76,28.82-2.33,5a4.67,4.67,0,0,0,2.78.88c1.15,0,1.77-.61,3.62-1.49a23.55,23.55,0,0,1,2.58-1.07l-2.16-5.22a112.75,112.75,0,0,0-1.82-11.47c-.5-2.39-1.06-4.66-1.64-6.79l-4.4-11.76Z"/><path class="cls-18" d="M157.45,464.55a4.26,4.26,0,0,0,1.27.15l4.65-1.92,2.07-.86,1,2.32-10.27,3.94a1.73,1.73,0,0,1-1.58-.39,2,2,0,0,1-.54-1.31,2.91,2.91,0,0,1,1.93-2.66A4.6,4.6,0,0,0,157.45,464.55Z"/><path class="cls-14" d="M132.81,368.2l-6.27,4.39.63,12.55,4.39,12.55h0A77.43,77.43,0,0,0,124,425.3c3.19,3.78,6,4.84,8.16,5,2.34.19,2.69-.77,5.64-.63,3.22.15,3.76,1.34,8.79,2.51,2.77.64,4.16,1,5.65.63,2.6-.6,2.66-2.11,6.27-4.39,3.83-2.42,5.5-1.81,6.9-3.77.84-1.17,1.53-3.2.63-6.9a45,45,0,0,0-12.86-21q-.08-10.75-.14-21.5l-4.88-.65-2.51-2.32,1.57-4.71h-3.52l-2.13,1.88-3.64.63Z"/><path class="cls-17" d="M127.48,372.9l-9.41,9.42L108.66,371a7.72,7.72,0,0,0,.31-2.82c-.07-.94-.13-1.66-.63-2-.86-.61-2.43.34-3.13.76a5.07,5.07,0,0,0-2.59,3.14,3.08,3.08,0,0,0,0,1.34,3.8,3.8,0,0,0,2.24,2.36,52.53,52.53,0,0,0,4.42,7.28c3,4.11,4.47,6.16,6.91,6.9,4.9,1.49,10.08-3.28,10.91-4.07Q127.3,378.4,127.48,372.9Z"/><path class="cls-17" d="M131.94,364v5.5a18.91,18.91,0,0,0,5.46.9,18.67,18.67,0,0,0,5.47-.71,2.46,2.46,0,0,0,.3-.54c.51-1.32-.57-2.34-.3-3.73a2.78,2.78,0,0,1,.78-1.42,4.05,4.05,0,0,0,2.73.61c2.45-.47,3.29-4,3.51-4.88.41-1.66,0-1.73,0-5.7,0-2.21.15-3.14.11-4.36a9.43,9.43,0,0,0-.11-1.33c-.58-2.76-3.73-4.92-4.84-4.29-.47.27-.12.79-.63,1.26-1.21,1.12-4-1.21-6.23.18a5.06,5.06,0,0,0-.49.36,11.43,11.43,0,0,0-2.69,3.22c-2,3.11-2.88,2.58-3.07,3.92-.27,2,1.79,2.78,2.34,6a8.34,8.34,0,0,1,0,2.85Z"/><polygon class="cls-17" points="134.38 369.14 140.03 378.55 143.49 368.06 134.38 369.14"/><path class="cls-19" d="M147.72,343.85a7.52,7.52,0,0,0-1.31-2.54,7,7,0,0,0-2.63-1.9c-1.41-.57-2.69-.46-5.32,0-4.73.82-7.1,1.23-8.63,2.22a9.07,9.07,0,0,0-3.84,4.12c-.85,2.12.14,2.82-.59,5.71s-2,3.08-2,5.08,1.44,2.36,2,5.07c.36,1.83-.16,2.2-.13,4.31.07,4.22,2.21,4.79,2.1,7.74-.12,3.36-2.92,3.46-3.94,7.67-.12.5-1.38,6.05,1.84,8.19a5.77,5.77,0,0,0,5.92,0c1.14-.72,1-1.39,2.75-4.44,2.11-3.71,2.92-3.81,3.28-5.71a9.45,9.45,0,0,0-.66-5.07c-1.07-2.95-2.36-2.93-3.28-5.88-.38-1.21-1-3.23,0-4.91.71-1.21,1.47-.93,2-1.9,1.15-2.25-2.64-4.5-2-7.91.24-1.2,1-2.18,2.63-4.14a8.07,8.07,0,0,1,2.62-2.54c1.67-.81,2.37,0,5.25-.63,2-.43,2.53-1,3.28-.64.25.12,1,.56,1.32,3.81.37,3.55-.36,4.42,0,8.24a7.83,7.83,0,0,1,0,1.91c-.22,1.62-1.19,3.82-3,4.35-1,.32-1.4-.24-2,.12-1.23.7-.83,3.33-.25,6.95.8,5,1.63,5.54,2,5.71a4,4,0,0,0,4.6-1.27c1-1.41-.19-2.75,0-6.35a31.62,31.62,0,0,1,.66-3.8c.27-1.66.32-2.55.65-9.52.26-5.35.26-5.63,0-6.34C150.17,347.3,148.92,347.07,147.72,343.85Z"/><path class="cls-18" d="M127,464.05a3.71,3.71,0,0,0,.84.77,2.83,2.83,0,0,0,.48.23H135v2.51l-10.11-.29a1.58,1.58,0,0,1-1.2-1,2.17,2.17,0,0,1,0-1.42,2.68,2.68,0,0,1,2.57-1.72C126.54,463.53,126.8,463.83,127,464.05Z"/><path class="cls-20" d="M131.87,397.38a32.1,32.1,0,0,0,21.34-1.26"/><path class="cls-21" d="M124.66,424.67a14.29,14.29,0,0,0,1.25,1.26,22.7,22.7,0,0,0,3.77,2.51,11.42,11.42,0,0,0,2.51,1.25c1.26.22,1.59-.32,3.76-.63a11.18,11.18,0,0,1,3.77,0c1.27.26,1.28.57,3.13,1.26a45.65,45.65,0,0,0,5,1.25c3.07.7,3.31.73,3.77.63,1.35-.3,2.36-1.22,3.76-2.51,1.2-1.1,1-1.2,1.89-1.88a12.87,12.87,0,0,1,3.76-1.88c1.92-.71,2.42-.61,3.14-1.26a4.36,4.36,0,0,0,1.25-2.51"/><path class="cls-22" d="M130,345.3a4.24,4.24,0,0,0-1.25,2.51c-.31,1.55.31,1.86,0,3.13-.38,1.54-1.38,1.49-1.89,3.14a6.28,6.28,0,0,0,0,3.14c.35,1.86,1,2,1.26,3.76a15.77,15.77,0,0,1,0,3.14,4.92,4.92,0,0,0,.63-3.14,13.49,13.49,0,0,0-.63-2.51,10.86,10.86,0,0,1-.63-2.51,4.34,4.34,0,0,1,0-1.25c.14-.76.45-1,1.26-2.51a8.1,8.1,0,0,0,.62-1.26,6.62,6.62,0,0,0,0-2.51A10.37,10.37,0,0,1,130,345.3Z"/><rect class="cls-23" x="101.11" y="353.17" width="4.49" height="12.74" rx="1.15" transform="translate(-104.79 48.69) rotate(-17.77)"/><path class="cls-24" d="M100.45,354.17a1.35,1.35,0,0,0-.4.54,1.18,1.18,0,0,0-.08.41s.06.67.23.71.48-.44.48-.94A1.32,1.32,0,0,0,100.45,354.17Z"/><rect class="cls-25" x="105.21" y="365.06" width="0.63" height="3.14" rx="0.26" transform="translate(-106.85 49.69) rotate(-17.77)"/><path class="cls-26" d="M207.17,251.81c1.14-1.23,2.09-.85,4.39-1.89s2.69-2.12,3.77-1.88,1,1.12,2.51,1.88a7.4,7.4,0,0,0,2.51.63c3.16.46,4-.17,5,.63a3.75,3.75,0,0,1,1.26,2.51c.17,1.45-.59,2.07-.63,3.13s.65,2.54,3.77,4.4c.35-1.06,2.5-7.56,1.67-13.18a41.2,41.2,0,0,0-1.05-4.39c-.77-2.9-1.15-3.71-1.88-4.39A5.74,5.74,0,0,0,226,238c-2-.58-3.66-.45-7.28,0-4.1.51-6.17.77-7.15,1.26a9.85,9.85,0,0,0-4.39,3.73c-.49.85-.44,1.14-1.26,2.54a32.09,32.09,0,0,0-1.88,3.14c-.54,1.19-.81,1.8-.63,2.51a2.51,2.51,0,0,0,2.51,1.88C206.48,252.93,206.57,252.45,207.17,251.81Z"/><path class="cls-16" d="M199.33,323.65v2.93A106.81,106.81,0,0,0,188,347.49c-.95,2.36-1.78,4.67-2.51,6.9l-7.53,5a3.62,3.62,0,0,0-3.76,5c.58,1.45,2,2,3.17,2.38a7.39,7.39,0,0,0,5.47,0,7.67,7.67,0,0,0,4.22-5.2q1.09-2,2.2-4.08a102.38,102.38,0,0,0,12.23-14.74,54.7,54.7,0,0,0,4.39-7.53,50.89,50.89,0,0,0,3.45-9.73l-8.78-3.76Z"/><path class="cls-27" d="M218.15,457.93a17.62,17.62,0,0,0-6,1.56c-2.16,1-6.06,3.36-5.65,5,.25,1,2,1.38,4.39,1.89a30.89,30.89,0,0,0,7.53.62c2.86-.1,6.58-.35,11-.94l.63-4.39c-.82.11-2,.25-3.45.31a19.13,19.13,0,0,1-3.14,0C222.67,461.89,220.44,461.38,218.15,457.93Z"/><path class="cls-28" d="M249.74,462a13.51,13.51,0,0,0-6.18,3.77c-.67.74-1.54,1.72-1.25,2.51.16.45.72.87,3.76,1.25a24.89,24.89,0,0,0,5.33.32,28.7,28.7,0,0,0,9.94-2.61v-4.92a9.3,9.3,0,0,1-4.92,1.88A9.53,9.53,0,0,1,249.74,462Z"/><path class="cls-14" d="M215.64,279.1a14,14,0,0,0-7.24,3.76,13.71,13.71,0,0,0-3.11,5.34c-3.43,9.54-5.14,14.3-6,20.39a76.49,76.49,0,0,0-.63,13.8l6.27,4.4h3.61q.54,11.76,1.1,23.53c1.59.76,3.84,1.77,6.59,2.82a39.45,39.45,0,0,0,8.15,2.51,28.08,28.08,0,0,0,8.71,0c4.89-.69,4.7-1.83,8.23-1.88,3.87-.06,5.15,1.37,8.16.62a10,10,0,0,0,4.71-2.82L253,337.77q-.78-4.25-1.57-8.47l-2.51-14.44,2.51,5,11.42-2.51,1.13-3.13c-1.83-6.85-3.77-12.47-5.33-16.63-4.67-12.42-7.41-15.41-9.73-17.26a23.08,23.08,0,0,0-9.41-4.39l-12.86,11"/><path class="cls-21" d="M208.74,324.28a71,71,0,0,0,.62-8.79c0-4.83-.44-6.87,0-10.66a30.88,30.88,0,0,1,1.89-7.53"/><path class="cls-21" d="M248.89,313a44.75,44.75,0,0,1-1.88-6.27,75.32,75.32,0,0,1-1.25-10c-.18-1.92-.4-4.49-.63-7.53"/><path class="cls-29" d="M215.64,375.73c-.31,0-.51,5.56-.63,8.78a122,122,0,0,0,0,12.55c.13,2.13.15,1.41.63,7.53.17,2.17.33,4.42.61,8,.49,6.43.56,7,.64,7,.33,0,.84-7.19.63-15.06-.08-3-.2-3.64-.63-10C216,381.74,216,375.73,215.64,375.73Z"/><path class="cls-30" d="M215.33,281.3c-.08-.19-1.35.06-2.51.62a9.21,9.21,0,0,0-2.51,1.89,10.25,10.25,0,0,0-2.51,3.13c-.52,1.07-.87,2.39-.63,2.51s.29-.1,1.25-1.25c1.36-1.63,1.65-2.15,2.51-3.14a17.46,17.46,0,0,1,1.89-1.88C214.31,281.91,215.4,281.48,215.33,281.3Z"/><path class="cls-24" d="M208.42,243.65c-.11,0-.21.57-.62,1.25-.52.87-.91.82-1.89,1.89a4.89,4.89,0,0,0-1.25,1.88c-.26.8-.26,1.79,0,1.88s.49-.28.63-.63c.21-.51-.06-.79,0-1.25.08-.68.74-.74,1.88-1.88a4.21,4.21,0,0,0,1.25-1.89C208.58,244.31,208.54,243.67,208.42,243.65Z"/><path class="cls-16" d="M225.68,326.79a7.67,7.67,0,0,0-2.83,2.19c-.92,1-1.72,1.88-1.56,2.83s1.24,1.52,2.19,2a12.09,12.09,0,0,0,7.85.82,11.7,11.7,0,0,0,4.39-2.19l9.41-1.25c4.88-1.36,8.85-2.25,11.61-2.82,3.37-.7,4.89-.91,6-2.2,2.42-2.92.1-8.47-.77-10.35L252,318l-.63,1.88-17.56,6.91-2.51.41A7.15,7.15,0,0,0,225.68,326.79Z"/><path class="cls-9" d="M244.5,311.1a6.55,6.55,0,0,0,1.71,3.31c2,1.5,4.27,1.68,5.29.71s.67-2.39.53-3.39c-.12-.84-.46-3.24-2.51-4.39-1.17-.67-3.23-1.1-4.39,0S244.35,310.25,244.5,311.1Z"/><path class="cls-31" d="M442.65,443.67a33,33,0,0,0,1.2,4.83c.76,2.27,1.14,3.41,1.81,4.22s2.07,2,10.25,2.41c1.94.09,4.62.15,7.84,0v-3.62c-1.94-.15-3.95-.34-6-.6-2.75-.34-5.36-.75-7.84-1.21l-1.2-6.63Z"/><path class="cls-31" d="M431.25,463c-1.8-4.57-3.08-8.51-4-11.58-.78-2.66-1.32-4.77-.7-7.31a11.14,11.14,0,0,1,2.26-4.43l3.57,1.5-.62,10q1.56,5,3.11,10Z"/><path class="cls-31" d="M456.08,398.51a21.9,21.9,0,0,1,4.63,11.14,21.66,21.66,0,0,1-1.12,9.61l-3.16-1.3a17,17,0,0,0,.72-5.52,12.43,12.43,0,0,0-.73-4.27,11.33,11.33,0,0,0-5-5.75Z"/><path class="cls-31" d="M459.14,422.71q-1.56,2.93-3.09,5.86a1.59,1.59,0,0,1-2.56-1.31c.05-.17.56-2.1.6-2.26l.6-2.26a2.09,2.09,0,0,1-.73,0,1.72,1.72,0,0,1-.7-.35,20.47,20.47,0,0,0,1.67-2,19.78,19.78,0,0,0,1.5-2.4,17,17,0,0,1,1.63.57c.56.24,1.07.48,1.53.73a15,15,0,0,0-.31,1.59A16.19,16.19,0,0,0,459.14,422.71Z"/><path class="cls-31" d="M419.79,400.77a21.52,21.52,0,0,1-20.5-4.73l2.41-2.41a17.13,17.13,0,0,0,4.82,2.79,12.84,12.84,0,0,0,4.22,1A11.44,11.44,0,0,0,418,395Z"/><path class="cls-31" d="M445.71,392.42c-.5-1-2.33-.4-4.82-2.41-1.15-.92-1.41-1.58-2.41-1.81-.78-.17-1.2.2-3.62,1.21a21.44,21.44,0,0,0-3,1.21,17.57,17.57,0,0,0-3,1.8,5.44,5.44,0,0,1-1.4.87c-.68.28-.94.19-1,.34-.7,1.49,4.37,7.57,10.25,7.24C442.35,400.54,446.64,394.35,445.71,392.42Z"/><path class="cls-32" d="M463.65,455.65l-.65-4.48a3.27,3.27,0,0,1,.68-1.76,4,4,0,0,1,3.09-1.28c2.36.05,4.85,4.11,6.09,10a2.67,2.67,0,0,1-4.18.61l-.41-.4Z"/><path class="cls-32" d="M430.46,461.5l4.36-1.3a4.27,4.27,0,0,1,2.12,1.55,4.39,4.39,0,0,1,.65,3.28c-.52,2.36-5,4.11-11,4l-.53-.63a2.45,2.45,0,0,1,.86-3.82l.24-.1Z"/><path class="cls-31" d="M441.6,389.08c.09.86.31,1.51-.09,2-.26.34-.71.52-2.41.62a29.32,29.32,0,0,1-3,0c-3.23-.12-3.87-.09-4.22-.61s0-.72,0-1.84a9.88,9.88,0,0,0-1.86-5.69,4.31,4.31,0,0,0-1.07-1.13c-.81-.58-1.44-.48-2.54-1.94-.87-1.14-1.18-2.12-2.21-12.15a7.23,7.23,0,0,1,.22-3.33c.65-1.85,2.49-3,4.32-3.79a18,18,0,0,1,14.78.13,7.73,7.73,0,0,1,3.1,2.52c1.15,1.73,1.14,3.93,1.1,6-.05,2.62.21,3.93-.12,5.69a11.34,11.34,0,0,1-1.9,4.95c-1.16,1.59-1.56,1.08-2.41,2.45A9.84,9.84,0,0,0,441.6,389.08Z"/><path class="cls-33" d="M422,358.17c.44-.47.6-.57,1-1a11.36,11.36,0,0,0,1.24-1.48c1.2-1.53,6.18-.95,6.28-1,4.43-.52,8.47-1,12.61.91,3.54,1.64,5.89,4.22,6.62,7.69a14.7,14.7,0,0,1-2.31,10.59c0-.89.42-3,.13-3.85a6.6,6.6,0,0,0-1.07-2.37c-1.54-2.11-4-2.66-5.59-3a19.07,19.07,0,0,0-9.65.6c-4.5,1.48-5.54,3.55-8.44,3-.41-.08-2.74-.56-3.62-2.42-1-2.1.51-4.66.61-4.82.32-.54,1.08-1.55,1.17-1.67A13.44,13.44,0,0,1,422,358.17Z"/><path class="cls-10" d="M426.45,424.27a72.3,72.3,0,0,0-3.1,21.21,19.8,19.8,0,0,0,6,1.21,20.27,20.27,0,0,0,5.79-.6l2.49-13.27,2.85,13.41a21.78,21.78,0,0,0,6.36.46,21.48,21.48,0,0,0,5.42-1.14c-.23-3.2-.61-6.65-1.2-10.32-.64-4-1.43-7.63-2.29-11Z"/><path class="cls-14" d="M445.11,391.82a8.44,8.44,0,0,1-16.32.51c-.32,0-.75,0-1.27.06a35.29,35.29,0,0,0-10.75,2.45,16,16,0,0,0,.61,4.22,15.68,15.68,0,0,0,1.2,3c1.34,0,2.75,0,4.22,0q1.56,0,3-.15a60.08,60.08,0,0,0-1.22,14,59.44,59.44,0,0,0,1.22,10.33,39.87,39.87,0,0,0,23.67-.11,63.12,63.12,0,0,0,1-10.82,61.84,61.84,0,0,0-1.21-12.67,12,12,0,0,0,6,3.62,18.54,18.54,0,0,0,3.62-6.63q-2.88-1.82-6-3.62Q448.93,393.75,445.11,391.82Z"/><path class="cls-31" d="M396.28,394.3c-1.41-1.7-2.82-3.41-4.24-5.1a1.6,1.6,0,0,1,2.2-1.86l1.86,1.42,1.86,1.42a1.72,1.72,0,0,1,.3-.66,1.76,1.76,0,0,1,.59-.51,20.08,20.08,0,0,0,1.21,2.31,19.06,19.06,0,0,0,1.64,2.31c-.33.4-.71.84-1.15,1.28s-.86.81-1.26,1.13c-.4-.29-.85-.59-1.35-.89A16.45,16.45,0,0,0,396.28,394.3Z"/><path class="cls-34" d="M423.35,444.28l6,1.2,6-.6-.24,1.21a22.52,22.52,0,0,1-4,.6,19,19,0,0,1-2.41,0,17,17,0,0,1-2.48-.37l-2.95-.84Z"/><path class="cls-34" d="M440.24,444.88l6,.6,5.9-1.37c0,.46.09.92.13,1.37a18.3,18.3,0,0,1-1.8.61,19.26,19.26,0,0,1-4.61.66,16.24,16.24,0,0,1-2.56-.05,15.71,15.71,0,0,1-3.08-.61Z"/><path class="cls-35" d="M428.48,392.73a9,9,0,0,0,4.82,5.42,8.55,8.55,0,0,0,5.43.6,8.67,8.67,0,0,0,4.22-2.41,9.34,9.34,0,0,0,2.41-4.22"/><path class="cls-36" d="M599.13,293.35c-1,.26-1,1-2.49,3.15a28.13,28.13,0,0,1-8.74,8.81c-1.33.78-1.68.76-1.87,1.26-1.22,3.08,7.62,13.42,16.85,12,8.27-1.32,13.87-11.57,11.86-15.74-1.06-2.19-3.47-1.15-8.74-5C602.51,295.19,601,292.84,599.13,293.35Z"/><rect class="cls-36" x="593.52" y="453.65" width="7.49" height="13.9"/><rect class="cls-36" x="617.24" y="454.31" width="7.49" height="13.9"/><path class="cls-37" d="M633.45,349.2a53.26,53.26,0,0,0,10.78,5.18A49.91,49.91,0,0,0,657.45,357l5.17-10.59a54.53,54.53,0,0,1-14.37-2.65,57.16,57.16,0,0,1-12.64-6Z"/><path class="cls-38" d="M546.43,383.5a9.6,9.6,0,0,1-1.7-4,8.4,8.4,0,0,1,0-3.43,7.28,7.28,0,0,1,2.25-3.79,6.86,6.86,0,0,1,2.72-1.65,6.18,6.18,0,0,1,3.61,0,7.6,7.6,0,0,1,3.73,2.46,10.88,10.88,0,0,1,1.78,3.45c1,3.38,3.33,23.55,5.81,51.25l4.14,32.52.83,6.9H567c-.68-4-1.51-9-2.37-14.78-1.23-8.17-2.27-15.14-3.17-23.9-1.08-10.56-2.25-26.61-3.18-34.1-.2-1.67-.44-3.29-.44-3.29-.52-3.58-1.07-6.55-1.51-8.69a13,13,0,0,0-2.67-6.86,3.39,3.39,0,0,0-1.89-1.27,2.67,2.67,0,0,0-2.9,1.24c-.29.59-.17,1.55.08,3.45.28,2.16.51,2.61.26,3.19S548.32,383.38,546.43,383.5Z"/><path class="cls-39" d="M656.6,460.89a11,11,0,0,0-.85.71,13.19,13.19,0,0,1-2.46,2.3c-.46.32-.89.59-.91,1,0,.87,1.71,1.67,2.75,2,.61.21,4.64,1.53,6.41-1a6.91,6.91,0,0,0,1-4c0-1.27-.4-3.93-1.53-4.27S658.89,459.12,656.6,460.89Z"/><path class="cls-39" d="M680.26,456.87a3.85,3.85,0,0,0-1,2.19c0,.33.06,1.34.09,1.93s0,.66,0,1a4.13,4.13,0,0,0,.41,2c.68.86,2.43.2,3.06,0l.19-.08c2-.85,5.2-5.94,4-7.93-.29-.48-.52-.27-1.45-.95-1.86-1.35-2-2.92-2.72-2.88S682.17,454.21,680.26,456.87Z"/><path class="cls-39" d="M655.21,422.11a27.9,27.9,0,0,0-2.21,6.94c-.83,4.72-.18,8.49,1,15s2.08,8.26,2,13a35.81,35.81,0,0,1-.58,5.86l7.08-2c-.33-2.53-.77-6.42-1-11.21-.17-4.39,0-7,.13-15.9.06-2.82.13-7,.19-12Z"/><path class="cls-39" d="M672.91,421.14a36.33,36.33,0,0,0-.91,7.91,38.94,38.94,0,0,0,3,15c1.84,4.3,3.44,5.71,5,11a39.48,39.48,0,0,1,1.1,4.83c.25,0,5.44-1.06,5.92-4a3.78,3.78,0,0,0,0-1c-.22-.24-.51-.58-.85-1a22.37,22.37,0,0,1-2.35-3.52,17.61,17.61,0,0,1-1.51-5.06,42.73,42.73,0,0,1-.72-5.53c-.36-4.58-.47-8.17-.49-9-.09-3.31-.19-7.18-.26-11.53Z"/><path class="cls-14" d="M654.31,371.84q-.31.42-.63.9A50.86,50.86,0,0,0,647.07,390a375.25,375.25,0,0,0-5.68,37.71c1.9.33,4.84.79,8.45,1.08,5.82.46,9.2.16,16,0,8.73-.21,8.33.18,16.06,0,4.21-.1,10.3-.36,17.74-1.08-1-9.2-2.46-19.29-4.55-30.06-2.19-11.29-4.73-21.53-7.34-30.62C677.88,363.69,662.47,360.85,654.31,371.84Z"/><path class="cls-40" d="M695.78,381c.79-.41,1.59-.81,2.39-1.17a1.08,1.08,0,0,1,.59-.15c.45.07.46.87.09,1.35a2.08,2.08,0,0,1-1.39.75,4.22,4.22,0,0,0-2.53,1.11.75.75,0,0,0-.13.35c-.13.72-.27,1.45-.41,2.17a.81.81,0,0,0,0,.54c.08.14.27.16.43.16,2.12,0,3.94.41,6.09-1.43a9,9,0,0,0,2.8-4.52,13,13,0,0,0,0-5.05c-.26-1.9-.58-3.78-1-5.62,0,0-2.81,1.06-3,1.24-.92.71-1,1.75-1.33,2.95A76.23,76.23,0,0,1,695.78,381Z"/><path class="cls-41" d="M668.9,316.29c8.77.38,11,.84,15.75,0,3.65-.67,5.53-.92,6.64-2.18,4.74-5.37,2.55-21-2.49-30.54-7-13.4-24.09-23.33-34.83-13.09-9.63,9.18-11.1,28.83-5,38.18a20.53,20.53,0,0,0,5.81,5.67C658,316.23,659.85,315.91,668.9,316.29Z"/><path class="cls-39" d="M667.9,307.3c-4.08.49-6.8,5.49-7.07,9.46,0,.32-.37,7.44,5.89,10.52,5.5,2.71,13,.8,15.33-3.15,3.18-5.4-4.68-12.33-8.25-14.73C672.1,308.26,670.2,307,667.9,307.3Z"/><path class="cls-36" d="M606.22,300a4.85,4.85,0,0,1-.62,2.25,4.76,4.76,0,0,1-1.81,1.51,6.73,6.73,0,0,1-2.8.93,3.89,3.89,0,0,1-2.65-1.06,6,6,0,0,1-1.5-2.38c-1.32-3.15-1-5.51-2.2-7.44a5,5,0,0,0-1.06-1.27c-.81-.65-1.44-.53-2.55-2.18-.86-1.28-1.18-2.39-2.19-13.7a9,9,0,0,1,.23-3.75,7.6,7.6,0,0,1,4.32-4.29,16.09,16.09,0,0,1,14.76.13,8,8,0,0,1,3.1,2.84c1.14,1.95,1.14,4.43,1.09,6.75-.06,2.95.21,4.43-.13,6.42a13.89,13.89,0,0,1-1.9,5.58c-1.16,1.79-1.57,1.22-2.42,2.77A19.44,19.44,0,0,0,606.22,300Z"/><path class="cls-39" d="M662,273.79a11.37,11.37,0,0,1,8.56-4c11,.13,11.83,12.22,9.78,21.62-.9,4.15-2.71,8.21-5.77,10.71a9.82,9.82,0,0,1-2.75,1.58h0c2.57,8.06.28,10.55.28,10.55-1.45,1.58-4.75,1.15-7.87-.8a61.6,61.6,0,0,0,.59-6.25c.06-1.37.07-2.68.05-3.92a8.28,8.28,0,0,1-.89-.61c-2.94-2.42-3.9-6.83-4.45-10.9C658.81,286.52,658.38,277.9,662,273.79Z"/><path class="cls-42" d="M670.66,271.44c3.15-.26,4.38-.88,5.72,0s1.91,2.94,2.15,4c3.25,15.41,2.14,23.44,2.14,23.44-1.54,11.12-5.12,16.1-2.86,18.59.73.81,2.89.95,7.15.81,5.79-.21,8.69-.32,9.3-.81,1.13-.93,2.74-3.26,0-23.44-1.88-13.79-3.24-17.19-4.29-19.4-1.62-3.4-3.81-8-8.58-11.31-7.75-5.37-16-2.8-17.17-2.43-6.15,2-9.69,6.58-11.44,8.89-2,2.63-3.91,6.07-6.43,15.36-3.39,12.45-7.4,26-2.86,29.9,1.28,1.11,3.08,1.29,6.43,1.62,3.63.36,5.87.58,7.15-.81,2-2.19-.61-6.08-.71-13.74-.06-4.44.91-8.61,2.86-17,2.75-11.83,4.43-13.26,5.72-13.74S666.57,271.78,670.66,271.44Z"/><path class="cls-43" d="M656,279.93c-.32-.14-1.89,3.13-2.86,5.65l-.07.19A47.05,47.05,0,0,0,651,306.6c.21,1.32.53,2.71.57,2.88.07.34,1.2,5.27,1.58,5.2s-1.39-7.64-.72-17C653.15,287.64,656.49,280.13,656,279.93Z"/><path class="cls-43" d="M676.93,268.36c-.28.32,1.88,3.07,3.48,7.05C683.09,282,683,289.13,683,292s-.3,5.64,0,5.74.77-1.77,1-3.12a26.08,26.08,0,0,0-.14-9.29c-.91-6-1.78-11.39-5-15.28C678.19,269.24,677.11,268.14,676.93,268.36Z"/><path class="cls-10" d="M654.31,329.35c0,.07-.34.72-1,2-1.9,3.93-1.88,3.86-1.94,4a12.35,12.35,0,0,0-1,7c.17.87.75,4,2.92,5,1.75.82,3.13-.4,3.89,0,1.68.86,0,9.39-9.08,33.95l11,4.2a53.56,53.56,0,0,0,14.36,2,36.11,36.11,0,0,0,13.52-2,35.5,35.5,0,0,0,6.19-3q-3.4-21.6-6.8-43.18a103.64,103.64,0,0,1,4.86,10,104.93,104.93,0,0,1,6.81,24.1h5.83a128.11,128.11,0,0,0-1-13,142.86,142.86,0,0,0-3.89-19.08c-2.08-7.64-1.95-4.87-7.78-21.08a12.94,12.94,0,0,0-2.92-5c-2.13-2.17-4.21-2.08-8.75-4-2.28-1-2.9-1.49-3.57-1-1.32.94-.13,3.83-1.69,6-1.05,1.5-2.7,1.71-5.07,2s-4.74.61-5.91-1c-1.42-2,.3-4.92-.84-6s-5.7.4-7.23,4C653.47,319.57,655.79,326.24,654.31,329.35Z"/><path class="cls-44" d="M662.52,346.42a5.48,5.48,0,0,1,2.53-2c2.32-.79,3.5,2.06,6.76,3,4.21,1.23,9.34-1.47,11-5,.35-.76.77-2,.85-2a9.93,9.93,0,0,1-4.23,7c-3.41,2.34-7.06,1.37-8.45,1-1.19-.32-2.2-1.72-4.22-2a4.53,4.53,0,0,0-1.69,0c-2,.42-3.14,2.26-3.38,2S662,347.21,662.52,346.42Z"/><path class="cls-45" d="M655.76,461.89c-.2.26-.48.61-.85,1-1.1,1.19-1.71,1.46-1.69,2s.76,1,.85,1a2.13,2.13,0,0,0,1.69,0c4.24-1.42,4.51-1.53,5.07-2a9.52,9.52,0,0,0,1.69-2v7h-1.21l-.48-2-5.07,3a5.54,5.54,0,0,1-3.38,0,3.59,3.59,0,0,1-2.54-2,3.64,3.64,0,0,1,0-2C650.66,462.75,655.44,461.94,655.76,461.89Z"/><path class="cls-45" d="M679.41,457.88c0,.23,0,.58,0,1a4,4,0,0,0,.73,2.71,1.52,1.52,0,0,0,1.14.43,2.4,2.4,0,0,0,1.5-.93c2.66-3,3.26-3.64,3.55-4.2.09-.17.14-.29.17-.36a7.17,7.17,0,0,0,.52-2.67l2.53,5.31.39.89-1.07.66-1.2-1.51-3.33,5.45a6.21,6.21,0,0,1-3,1.85c-.8.2-2.13.53-3-.39a3.31,3.31,0,0,1-.78-1.78C677,461.4,678.94,458.54,679.41,457.88Z"/><path class="cls-46" d="M613.8,266.61a8.79,8.79,0,0,0-.43-1.18,9.94,9.94,0,0,0-.76-1.37c-.16-.24-.29-.44-.39-.57a4.59,4.59,0,0,0-.5-1.44c-1.13-2-3.63-1.57-5.52-2.23-3.91-1.37-7.48-2.65-11.53-1a11.78,11.78,0,0,0-5.23,4.1,15.46,15.46,0,0,0-2,4.15c-1.86,6.38,1.64,13,2.15,13.91a15.34,15.34,0,0,1-.52-3.75,10.33,10.33,0,0,1,.62-4.28c.88-2,2.61-2.8,4.32-3.56a17.27,17.27,0,0,1,8.3-1.18c2.56.21,5.65.58,8,2,1.11.67,1.25,1.07,2.21-.17,1.15-1.47,1.77-2.19,1.58-2.91A1.09,1.09,0,0,0,613.8,266.61Z"/><path class="cls-47" d="M589.09,271.09a4.67,4.67,0,0,1,1-1.87,11.92,11.92,0,0,1,3.15-2.5,15.74,15.74,0,0,1,2.11-1.25c1.57-.69,3.11-.8,3.15-.63s-1,.33-2.63,1.25l-1,.63c-1.47.86-1.64.93-2.1,1.25a13.89,13.89,0,0,0-1.58,1.25C589.79,270.42,589.18,271.19,589.09,271.09Z"/><path class="cls-36" d="M552.55,363.64a8.08,8.08,0,0,0-6.13,4.53,10.8,10.8,0,0,0-.86,6.24,3.55,3.55,0,0,0,.87,1.81,2.59,2.59,0,0,0,2.14.84,19.46,19.46,0,0,0,2.31-.84c.56-.25,1.09-.51,1.57-.78l.86-2.07v1h2.58c0-.64,0-1.15,0-1.5a8.21,8.21,0,0,0-.17-2.57c-.06-.39-.16-.95-.25-1.65Q554,366.17,552.55,363.64Z"/><path class="cls-10" d="M585.77,371.11c0,12.88.36,26.51,1.23,40.82,1,15.64,2.4,30.41,4.16,44.23a17.08,17.08,0,0,0,7.61,2,16.55,16.55,0,0,0,6.07-1q1.29-53,2.84-53t3.38,54a17.1,17.1,0,0,0,16.25,0q1.05-23.79,1.69-48.38.53-20.67.72-40.79Z"/><path class="cls-48" d="M583,306.37l-6.12,38.38-20.86,14.16V361q-2.23,1.62-4.48,3.23l3.66,5.48,4.14-3,2.5.46,19.89-5.1,7.46-37.73Q586.14,315.39,583,306.37Z"/><path class="cls-14" d="M589.8,303.59l-6.69,2.73a55.33,55.33,0,0,0,2.41,10.93,52.87,52.87,0,0,0,3.37,7.94,61.31,61.31,0,0,1-1.83,6.37c-1.58,4.55-2.38,5.46-3.95,9.39a40.14,40.14,0,0,0-2.65,10.72,29.2,29.2,0,0,0,.13,9.84,25.2,25.2,0,0,0,2.12,6,25.42,25.42,0,0,1,2.29,4.5c.69,1.79.87,2.88,2,4a8.24,8.24,0,0,0,2.4,1.56,17.51,17.51,0,0,0,3.43,1.19,37.11,37.11,0,0,0,7.86,1.43,58.22,58.22,0,0,0,16.88-.11,25.78,25.78,0,0,0,8.43-2.64,28.46,28.46,0,0,0,4.83-3.16c0-.41-.06-.85-.11-1.32s-.15-1.06-.22-1.48c-.3-1.67-.44-2-.5-2.47-.17-1.38.55-2.11,1.06-3.49s.28-2.14,0-6.61c0,0-.12-1.05-.23-5.73-.08-3.05-.07-6,0-8.75l-6.36-16.24L622,301.89l-10.93-1.57a34.6,34.6,0,0,1-3.1,7,31.11,31.11,0,0,1-4.5,5.95,25.82,25.82,0,0,1-7.87-4A29.73,29.73,0,0,1,589.8,303.59Z"/><path class="cls-36" d="M610.55,363l-2.49,2a10.31,10.31,0,0,0-2.58,3.93,11.78,11.78,0,0,0-.73,3.95,3.93,3.93,0,0,0,.18,1.34,4.27,4.27,0,0,0,2.78,2.65,4.44,4.44,0,0,0,2.79,0c2.86-.93,4-4.47,4.2-5l1.65-3.94Z"/><path class="cls-48" d="M643.4,344l-24.73,22-2.22,3.11-6.63-5.91,2.48-3,.69-2.46,14.24-14.29,1.66-2a21.37,21.37,0,0,1,1.55-3c.94-1.55,2.53-4.16,4-4.64C636.83,333.1,640.62,337.21,643.4,344Z"/><path class="cls-39" d="M623.5,339.06a6.4,6.4,0,0,0,0,3c.47,1.9,2,4,4.14,3.94s4.12-2.24,4.15-4.93a5,5,0,0,0-3.32-4.92C626.49,335.55,624.38,336.78,623.5,339.06Z"/><path class="cls-49" d="M592.6,461.27a7,7,0,0,0,2.17.32,6.91,6.91,0,0,0,2-.32q.24,1.14.51,2.31c.14.61.27,1.14.37,1.56s.18.78.26,1.08a1.58,1.58,0,0,0,1.24,0,1.82,1.82,0,0,0,.94-1v-1.85l1.65-.12v5.53l-6.63.38H581.82l.83-3a5.19,5.19,0,0,1,1.5-1.95,4.7,4.7,0,0,1,2.65-1l6.63,1a7.15,7.15,0,0,1-.83-3Z"/><path class="cls-49" d="M616.32,462.59a6.7,6.7,0,0,0,2.16.32,6.92,6.92,0,0,0,2-.32q.24,1.14.51,2.31c.14.61.27,1.15.37,1.56s.18.79.26,1.09a1.63,1.63,0,0,0,1.24,0,1.82,1.82,0,0,0,.94-1v-1.85l1.65-.12v5.53l-6.63.38H605.54l.83-3a5.2,5.2,0,0,1,1.5-2,4.7,4.7,0,0,1,2.65-1l6.63,1a7.32,7.32,0,0,1-.54-1.31A7.55,7.55,0,0,1,616.32,462.59Z"/><path class="cls-48" d="M621.87,302l6.89,10.59c2.67,4.88,5.38,10.18,8,15.88s5.11,11.41,7.21,16.75l-9,4.82a54.06,54.06,0,0,1-6.79-11,54.74,54.74,0,0,1-3.72-10.86Q623.17,315.14,621.87,302Z"/><path class="cls-50" d="M588.81,304.43A40.48,40.48,0,0,0,595.7,311a39.06,39.06,0,0,0,8.12,4.63,40.43,40.43,0,0,0,5.61-7.28,41.17,41.17,0,0,0,3.47-7.24"/><path class="cls-51" d="M588,337.05c-.07,0-.61,1.49-2,5-1.12,2.84-1.58,3.89-2.16,5.8a30.77,30.77,0,0,0-.84,3.2,21.82,21.82,0,0,0,0,8,23.33,23.33,0,0,0,2,5.86c.21.42,1.63,3.28,2,3.14s-2.39-5.58-3-12C583,345.78,588.18,337.11,588,337.05Z"/><path class="cls-4" d="M705.32,307.05h88.9a3,3,0,0,0,0-2c-.67-1.77-3.42-2.83-6.78-2.26A12.83,12.83,0,0,0,771,300.36a14.26,14.26,0,0,0-12.17-4.87,14.5,14.5,0,0,0-4.26-3.65c-2.93-1.63-5.62-1.73-9.12-1.82-4.18-.11-6.74-.17-9.74,1.22a15.94,15.94,0,0,0-6.69,6.08l-4.26.61a8.07,8.07,0,0,0-6.69,5.47,12.9,12.9,0,0,0-12.77,3.65Z"/></g></g></svg>
